<svg xmlns="http://www.w3.org/2000/svg" viewBox="0 0 96 96" role="img" aria-label="MyGeorgia Estate logo">
  <defs>
    <linearGradient id="g" x1="0" y1="0" x2="1" y2="1">
      <stop offset="0" stop-color="#7cdbff"/>
      <stop offset="1" stop-color="#6ee7b7"/>
    </linearGradient>
  </defs>
  <rect x="8" y="8" width="80" height="80" rx="22" fill="rgba(255,255,255,0.06)" stroke="rgba(255,255,255,0.18)"/>
  <path d="M18 44L48 20L78 44V76C78 78.2 76.2 80 74 80H22C19.8 80 18 78.2 18 76V44Z" fill="url(#g)" opacity="0.95"/>
  <path d="M34 80V56C34 53.8 35.8 52 38 52H58C60.2 52 62 53.8 62 56V80" fill="rgba(0,0,0,0.18)" stroke="rgba(255,255,255,0.22)"/>
  <path d="M40 36C42.5 33.4 45.6 32 48.9 32C52.2 32 55.2 33.4 57.6 36" fill="none" stroke="rgba(255,255,255,0.55)" stroke-width="3" stroke-linecap="round"/>
  <path d="M25 49L48 31L71 49" fill="none" stroke="rgba(255,255,255,0.35)" stroke-width="3" stroke-linecap="round"/>
</svg>

